<?xml version="1.0" standalone="no"?>
<!DOCTYPE svg PUBLIC "-//W3C//DTD SVG 20010904//EN"
 "http://www.w3.org/TR/2001/REC-SVG-20010904/DTD/svg10.dtd">
<svg version="1.0" xmlns="http://www.w3.org/2000/svg"
 width="1079.000000pt" height="1079.000000pt" viewBox="0 0 1079.000000 1079.000000"
 preserveAspectRatio="xMidYMid meet">
<metadata>
Created by potrace 1.11, written by Peter Selinger 2001-2013
</metadata>
<g transform="translate(0.000000,1079.000000) scale(0.100000,-0.100000)"
fill="#000000" stroke="none">
<path d="M5273 10603 c-6 -16 -32 -64 -57 -108 -25 -44 -53 -94 -62 -112 -14
-28 -31 -40 -69 -49 -21 -5 -121 -25 -150 -29 -66 -11 -135 -27 -135 -30 0 -3
21 -26 48 -53 163 -170 182 -193 177 -220 -2 -15 -7 -52 -11 -82 -3 -30 -8
-64 -10 -75 -3 -11 -7 -50 -10 -87 l-5 -67 93 45 c231 112 211 104 236 88 12
-8 22 -12 22 -10 0 3 41 -15 90 -40 148 -72 178 -83 172 -61 -2 6 -5 31 -8 56
-2 25 -6 60 -9 76 -2 17 -7 56 -10 88 -4 32 -8 66 -10 76 -3 18 17 43 151 185
41 43 73 80 71 82 -4 5 -26 10 -82 19 -16 3 -61 12 -100 19 -38 8 -87 17 -108
21 -26 4 -41 13 -47 28 -21 47 -147 261 -156 264 -5 2 -15 -9 -21 -24z"/>
<path d="M4976 9452 c-2 -1 -41 -5 -87 -7 -155 -10 -306 -24 -421 -41 -21 -2
-50 -6 -65 -8 -15 -2 -44 -7 -63 -10 -19 -3 -48 -8 -65 -11 -159 -26 -262 -47
-391 -79 -34 -8 -72 -17 -85 -20 -98 -19 -400 -116 -566 -182 l-121 -47 -16
-51 c-9 -28 -18 -62 -21 -75 -2 -13 -13 -60 -24 -105 -23 -93 -51 -220 -57
-256 -3 -14 -7 -31 -10 -39 -2 -8 -7 -30 -10 -50 -3 -20 -7 -42 -10 -50 -2 -8
-7 -30 -10 -50 -3 -20 -9 -52 -14 -71 -5 -19 -12 -55 -15 -80 -4 -25 -11 -67
-16 -95 -5 -27 -12 -65 -14 -82 -3 -18 -7 -49 -10 -68 -3 -19 -7 -50 -10 -67
-40 -267 -35 -1220 10 -1843 7 -100 10 -126 29 -265 16 -121 58 -337 92 -480
14 -58 27 -113 29 -123 6 -29 66 -239 82 -286 8 -24 16 -51 18 -60 4 -17 31
-96 42 -121 3 -8 7 -17 8 -20 5 -22 28 -89 36 -105 5 -11 20 -51 35 -90 14
-38 31 -83 39 -100 7 -16 25 -59 40 -95 68 -159 235 -503 248 -508 4 -2 7 -9
7 -14 0 -6 25 -54 55 -105 30 -52 55 -96 55 -98 0 -7 155 -252 242 -383 80
-121 308 -432 372 -507 14 -16 29 -35 33 -40 19 -25 108 -132 122 -146 9 -9
39 -42 66 -74 159 -187 490 -518 680 -680 39 -33 72 -62 75 -65 3 -3 40 -33
83 -68 l78 -63 52 32 c67 43 234 156 269 183 33 27 65 51 103 79 143 107 462
410 591 562 32 39 61 72 65 75 4 4 106 131 132 165 86 113 238 336 288 422
254 439 425 821 557 1243 17 52 41 131 55 175 55 177 182 732 202 880 2 17 11
75 20 130 15 96 19 127 30 218 3 23 7 58 10 77 3 19 7 55 10 80 2 25 6 70 10
100 8 78 15 156 20 225 2 33 6 93 10 134 9 99 14 231 19 444 3 99 6 180 8 182
2 2 1 36 -2 75 -3 40 -2 74 2 76 5 3 4 14 -2 24 -7 13 -7 21 0 25 6 4 8 10 5
15 -3 5 -8 85 -10 177 -5 183 -12 346 -21 463 -3 41 -7 100 -9 130 -7 100 -18
222 -30 335 -4 33 -8 74 -10 90 -11 104 -16 145 -21 180 -4 22 -8 51 -9 65 -2
14 -8 54 -14 90 -6 36 -13 82 -15 104 -9 65 -13 70 -119 115 -56 24 -115 49
-132 56 -207 90 -576 214 -830 280 -94 25 -371 83 -470 99 -49 9 -101 17 -115
20 -14 2 -50 7 -80 11 -30 3 -71 8 -90 11 -19 2 -60 6 -90 9 -30 3 -73 8 -95
10 -138 14 -759 28 -769 17z"/>
<path d="M4396 1428 c3 -5 10 -6 15 -3 13 9 11 12 -6 12 -8 0 -12 -4 -9 -9z"/>
<path d="M3852 1408 c2 -10 -12 -13 -54 -12 -53 0 -56 -1 -43 -16 8 -9 15 -23
15 -31 0 -8 9 -21 20 -29 27 -19 25 -26 -10 -46 -20 -12 -28 -24 -26 -38 2
-12 -2 -27 -8 -35 -8 -11 -8 -13 2 -7 6 4 12 2 12 -3 0 -6 -6 -11 -12 -11 -9
0 -9 -3 1 -9 11 -7 9 -10 -9 -13 -13 -1 -25 -9 -28 -17 -3 -8 0 -11 6 -7 6 3
13 2 17 -4 4 -6 10 -8 14 -6 10 6 7 -66 -3 -83 -6 -8 -5 -12 0 -8 13 7 12 -96
-1 -105 -6 -5 -6 -8 3 -8 6 0 12 -7 12 -16 0 -8 -4 -13 -9 -9 -5 3 -13 1 -16
-5 -4 -6 -1 -9 7 -8 7 2 12 -3 10 -10 -3 -15 42 -11 75 7 11 5 23 8 27 6 3 -3
4 -2 1 1 -2 4 2 21 9 38 7 17 11 36 9 42 -2 6 5 14 16 17 14 3 25 -3 36 -19
22 -33 18 -44 -6 -15 -11 13 -22 21 -25 18 -3 -3 5 -14 17 -26 26 -24 51 -13
30 13 -7 8 -9 21 -5 27 4 7 3 9 -4 5 -6 -3 -13 -2 -16 3 -3 5 -16 7 -29 4 -22
-4 -21 -4 2 10 17 10 20 16 10 19 -8 3 -10 9 -6 14 9 9 28 -16 21 -27 -2 -4 6
-9 17 -12 12 -3 18 -10 14 -16 -3 -6 1 -14 9 -17 9 -3 16 -12 16 -20 0 -8 5
-14 11 -14 6 0 9 -7 6 -14 -4 -10 -1 -13 9 -9 7 3 14 0 14 -7 0 -7 11 -23 26
-36 26 -24 40 -31 29 -15 -3 5 2 16 10 24 8 9 19 32 23 53 4 21 14 40 21 42
10 3 12 0 8 -11 -3 -9 -1 -19 4 -23 6 -3 8 -15 6 -26 -3 -11 -3 -17 0 -14 11
11 42 -25 37 -42 -5 -16 -5 -16 5 -1 11 17 66 15 56 -1 -3 -5 -2 -11 3 -14 4
-2 8 6 8 19 0 13 -3 22 -7 20 -8 -5 -3 40 6 54 3 6 0 11 -7 11 -10 0 -10 2 1
9 11 7 11 9 0 14 -9 3 -9 6 -2 6 6 1 20 -16 30 -36 10 -20 27 -41 38 -47 11
-6 23 -15 26 -19 3 -5 10 -8 15 -8 5 1 9 -3 9 -8 0 -5 4 -13 8 -18 5 -4 7 -1
5 7 -2 11 6 15 27 16 71 2 132 26 162 63 32 39 62 9 54 -55 -2 -19 72 2 91 26
17 21 37 29 21 8 -11 -15 -11 -38 0 -38 4 0 33 0 66 0 50 0 62 4 85 26 14 15
26 37 26 50 0 23 -3 24 -68 22 -37 -1 -73 1 -79 5 -6 4 -14 1 -16 -5 -4 -8 -6
-7 -6 4 -1 9 -4 23 -7 32 -3 9 -1 16 6 16 6 0 8 -5 4 -12 -5 -7 -3 -8 5 -4 9
6 8 13 -5 27 -16 17 -7 28 10 12 3 -4 16 -8 28 -10 12 -2 19 -1 16 3 -3 3 -14
7 -24 8 -20 3 -53 46 -36 46 6 0 16 -8 22 -17 9 -15 10 -14 4 7 -6 23 -6 24
11 10 11 -8 16 -10 12 -3 -5 8 3 11 25 9 38 -4 89 19 85 37 -1 6 3 11 10 10 7
-2 9 6 4 25 -5 18 -13 26 -25 24 -13 -2 -16 1 -10 10 6 10 4 10 -7 2 -17 -13
-62 -16 -54 -4 3 5 1 12 -5 15 -6 4 -9 1 -8 -6 2 -6 -3 -14 -11 -17 -8 -3 -11
0 -7 7 4 6 2 11 -3 11 -6 0 -11 -4 -11 -8 0 -5 -7 -9 -15 -9 -8 0 -15 7 -15
14 0 8 5 11 13 7 10 -6 10 -4 0 7 -7 7 -13 29 -13 48 0 33 3 36 30 37 17 1 30
-3 30 -7 0 -5 5 -9 11 -9 5 0 7 6 3 13 -5 8 -2 8 9 -2 9 -7 17 -9 17 -4 0 5
18 8 39 7 l39 -1 -10 31 c-18 53 -36 66 -91 66 -46 0 -48 1 -36 18 11 14 10
14 -8 -2 -20 -16 -25 -17 -40 -5 -9 8 -14 9 -10 2 5 -8 -8 -11 -48 -9 -44 1
-55 -2 -55 -14 0 -19 45 -82 52 -74 4 3 9 0 14 -7 4 -7 3 -10 -2 -6 -13 7 -48
-14 -53 -33 -2 -8 -5 -31 -5 -51 -1 -21 -6 -36 -13 -36 -7 0 -12 11 -11 24 1
13 7 23 12 23 5 0 7 3 3 6 -3 3 -14 1 -24 -5 -10 -6 -12 -11 -5 -11 10 0 10
-5 1 -21 -8 -15 -8 -24 0 -32 16 -16 14 -32 -2 -18 -8 6 -17 8 -20 5 -3 -4
-18 -3 -32 0 -23 6 -25 9 -13 23 9 12 9 15 1 9 -22 -12 -52 -15 -58 -5 -4 5
-10 7 -15 4 -4 -3 -10 2 -14 10 -3 8 -1 17 4 20 12 8 32 -4 26 -14 -3 -4 1 -8
9 -8 13 0 12 4 -2 19 -9 10 -12 18 -7 18 15 0 36 -17 32 -26 -1 -5 6 -9 17 -9
12 0 20 -6 19 -16 -1 -17 19 -20 33 -4 4 4 2 5 -6 0 -9 -5 -12 -3 -9 6 3 8 11
13 17 11 6 -1 11 2 11 8 0 14 -13 13 -28 -2 -8 -8 -12 -8 -12 -1 0 6 12 18 26
28 14 9 23 19 20 22 -3 3 -1 14 5 25 7 14 7 23 -2 34 -7 9 -8 14 -1 14 6 0 16
-8 22 -17 8 -12 10 -13 7 -3 -2 8 -14 21 -28 27 -13 7 -20 13 -14 13 5 0 -1 7
-13 16 -12 8 -19 20 -16 26 4 7 2 8 -4 4 -6 -4 -20 -2 -30 3 -27 15 -74 19
-99 10 -16 -6 -23 -5 -23 3 0 7 -6 4 -13 -7 -9 -12 -19 -15 -28 -10 -8 5 -11
5 -7 0 10 -10 -19 -38 -32 -30 -6 4 -10 3 -9 -2 4 -15 -13 -63 -21 -63 -5 0
-7 12 -4 28 3 19 2 23 -5 12 -5 -8 -7 -18 -5 -22 3 -4 -1 -8 -8 -8 -8 0 -14 9
-15 20 -1 11 2 18 8 15 5 -4 9 -1 9 4 0 6 -6 11 -13 11 -7 0 -18 9 -25 20 -7
11 -19 20 -27 20 -8 0 -15 4 -15 9 0 5 -10 8 -23 7 -20 -1 -23 -6 -21 -48 1
-38 -3 -48 -15 -49 -14 0 -14 -1 -1 -7 18 -8 21 -43 5 -54 -6 -5 -5 -11 5 -18
10 -6 11 -10 3 -10 -7 0 -13 -5 -13 -11 0 -5 5 -7 10 -4 6 3 10 1 10 -4 0 -6
-5 -11 -11 -11 -8 0 -9 -4 0 -13 6 -8 8 -17 4 -20 -9 -10 -34 43 -26 56 9 16
10 77 1 77 -4 0 -8 7 -8 16 0 8 -7 22 -15 31 -8 8 -12 19 -9 25 4 6 2 8 -4 4
-6 -3 -17 0 -24 8 -13 12 -76 28 -118 30 -8 1 -14 7 -12 14 1 8 -2 11 -8 7 -6
-3 -8 -11 -5 -16 4 -5 -3 -9 -15 -9 -12 0 -19 4 -15 9 3 5 1 13 -5 16 -6 4 -9
1 -8 -7z m88 -119 c0 9 5 8 14 -2 20 -19 31 -83 17 -92 -6 -3 -9 -10 -6 -15 3
-5 0 -12 -7 -16 -18 -11 -48 -12 -48 -2 0 4 -5 7 -12 6 -7 -2 -12 2 -13 7 0 6
-3 15 -6 20 -3 6 -6 25 -7 43 -2 23 1 31 9 26 7 -4 21 -8 33 -9 36 -4 37 -5
31 -15 -3 -5 -12 -7 -20 -3 -9 3 -15 -1 -15 -8 0 -8 -4 -7 -12 4 -12 16 -13
15 -15 -9 -1 -19 1 -23 8 -13 5 8 9 10 9 5 0 -5 7 -3 15 4 8 7 15 8 15 2 0
-10 -24 -33 -31 -29 -2 1 2 -3 9 -10 20 -17 40 -5 38 22 -2 16 1 22 10 18 8
-3 14 0 14 7 0 6 -4 9 -9 5 -6 -3 -8 3 -6 15 2 11 -1 23 -7 26 -7 4 -8 2 -4
-4 4 -7 3 -12 -3 -12 -5 0 -13 5 -16 10 -4 6 -12 10 -18 9 -7 -1 -21 0 -32 1
-14 2 -12 4 10 9 17 4 36 3 43 -2 8 -6 12 -5 12 2z m510 -41 c0 -5 -7 -8 -15
-8 -8 0 -15 -5 -15 -10 0 -7 6 -7 20 0 23 12 24 15 10 41 -12 20 -10 22 14 13
8 -3 12 -12 9 -21 -4 -9 -2 -14 3 -10 6 3 11 -3 11 -15 1 -13 -3 -18 -13 -14
-16 6 -64 -13 -64 -26 0 -4 -9 -3 -19 4 -23 14 -17 39 7 32 15 -5 15 -4 0 6
-26 16 -23 33 3 20 11 -7 23 -9 27 -6 3 3 0 6 -7 6 -7 0 -9 5 -5 12 5 7 3 8
-7 3 -12 -7 -12 -6 0 9 14 16 15 16 27 -6 8 -13 13 -26 14 -30z m-185 12 c1
-16 -13 -30 -29 -30 -5 0 -1 10 10 22 10 12 14 18 7 15 -6 -4 -15 -2 -18 4 -5
7 0 10 11 7 11 -2 19 -10 19 -18z m0 -49 c3 -5 1 -12 -5 -16 -5 -3 -10 -11
-10 -16 0 -6 5 -7 10 -4 6 3 10 -3 10 -14 0 -12 5 -21 10 -21 6 0 10 -8 10
-18 0 -11 8 -18 22 -19 19 -2 37 -18 38 -35 0 -4 -9 -5 -20 -3 -11 2 -20 0
-20 -5 0 -5 -9 -11 -19 -15 -18 -6 -38 -40 -33 -57 3 -12 -16 -10 -23 2 -3 6
-2 10 2 10 10 0 10 41 -1 58 -4 7 -2 12 4 12 8 0 7 6 -1 21 -8 15 -8 24 0 32
7 7 7 14 0 24 -8 9 -8 13 0 13 6 0 11 -5 11 -12 0 -6 3 -8 6 -5 4 4 2 12 -4
20 -6 7 -10 23 -9 35 1 23 12 29 22 13z m-332 -16 c-3 -9 -8 -14 -10 -11 -3 3
-2 9 2 15 9 16 15 13 8 -4z m677 -54 c-5 -9 -5 -23 0 -31 4 -7 6 -20 3 -27 -5
-12 -7 -12 -14 -1 -7 10 -9 9 -9 -4 0 -9 5 -18 12 -20 16 -6 17 -118 2 -118
-7 0 -14 7 -18 15 -3 9 0 15 10 15 8 0 12 5 9 10 -4 6 -11 7 -17 4 -7 -5 -7
-1 0 11 6 12 6 30 0 52 -5 19 -7 37 -4 41 3 3 -3 12 -14 19 -11 8 -18 19 -14
24 4 6 11 6 19 -1 18 -15 31 6 15 25 -9 11 -7 12 9 8 16 -4 18 -9 11 -22z
m-492 -19 c-5 -2 -5 -9 -1 -15 10 -16 10 -97 1 -91 -5 3 -8 3 -8 0 0 -2 -3
-13 -6 -23 -5 -15 -4 -15 5 -3 5 8 13 11 18 7 6 -7 -13 -26 -27 -27 -3 0 -11
14 -18 30 -8 17 -18 27 -24 24 -7 -4 -8 -2 -4 4 3 6 -2 15 -12 21 -20 11 -27
51 -9 51 7 0 23 13 36 29 22 26 25 27 40 12 9 -9 13 -18 9 -19z m-233 -82 c1
-16 -2 -30 -6 -30 -5 0 -8 16 -7 35 1 42 10 38 13 -5z m517 30 c6 0 8 -7 4
-15 -3 -8 0 -20 7 -27 14 -15 16 -33 5 -44 -7 -6 -9 -1 -8 21 1 9 -30 65 -36
65 -3 0 -2 -5 1 -10 3 -6 0 -13 -9 -16 -8 -3 -13 -14 -11 -25 2 -11 0 -17 -6
-14 -22 14 5 79 29 70 8 -3 18 -5 24 -5z m56 -30 c20 -19 21 -23 8 -49 -8 -15
-22 -28 -30 -28 -21 0 -20 14 1 25 9 6 18 17 19 26 1 9 -2 14 -7 10 -11 -6
-41 21 -32 30 10 10 18 7 41 -14z m-73 -10 c-3 -5 -2 -10 4 -10 5 0 8 -12 5
-26 -3 -16 -1 -23 6 -19 5 3 10 1 10 -4 0 -6 -7 -11 -15 -11 -8 0 -15 5 -15
10 0 6 -3 9 -7 9 -18 -3 -24 2 -16 14 8 12 9 17 12 37 0 6 6 10 12 10 5 0 7
-4 4 -10z"/>
<path d="M4252 1124 c-6 -12 -7 -26 -2 -34 5 -8 6 -18 4 -22 -3 -4 0 -8 7 -8
10 0 10 -3 1 -12 -27 -27 -10 -25 20 2 17 16 35 27 40 24 4 -3 8 0 8 5 0 6 -4
12 -10 12 -5 1 -15 2 -21 3 -6 0 -16 12 -24 25 -12 24 -13 24 -23 5z m51 -38
c7 4 4 -2 -6 -12 -15 -16 -19 -17 -27 -4 -5 8 -6 18 -4 22 3 4 0 8 -6 8 -6 0
-8 5 -5 11 5 6 13 3 22 -10 8 -12 20 -18 26 -15z"/>
<path d="M4590 1111 c0 -6 4 -13 10 -16 6 -3 7 1 4 9 -7 18 -14 21 -14 7z"/>
<path d="M4063 1110 c-20 -18 -27 -31 -20 -34 8 -3 7 -5 -2 -5 -11 -1 -10 -5
5 -15 14 -11 22 -12 33 -3 11 10 13 8 7 -10 -4 -12 -2 -24 3 -27 14 -9 31 27
21 44 -5 9 -5 19 1 26 7 8 6 14 -1 19 -6 3 -8 10 -5 15 14 22 -13 15 -42 -10z
m32 11 c-3 -5 -1 -13 5 -16 8 -5 8 -11 1 -19 -6 -7 -9 -16 -6 -19 3 -4 2 -5
-2 -2 -3 3 -12 0 -20 -6 -7 -6 -14 -9 -14 -5 -5 25 -3 34 15 54 20 22 32 30
21 13z m8 -86 c-3 -9 -8 -14 -10 -11 -3 3 -2 9 2 15 9 16 15 13 8 -4z"/>
<path d="M4073 1098 c-16 -27 -12 -40 8 -23 10 10 16 22 13 26 -7 12 -11 11
-21 -3z"/>
<path d="M4090 1409 c0 -5 5 -7 10 -4 6 3 10 8 10 11 0 2 -4 4 -10 4 -5 0 -10
-5 -10 -11z"/>
<path d="M4326 1412 c-3 -5 1 -9 9 -9 8 0 12 4 9 9 -3 4 -7 8 -9 8 -2 0 -6 -4
-9 -8z"/>
<path d="M4486 1408 c3 -5 10 -6 15 -3 13 9 11 12 -6 12 -8 0 -12 -4 -9 -9z"/>
<path d="M4540 1416 c0 -2 8 -10 18 -17 15 -13 16 -12 3 4 -13 16 -21 21 -21
13z"/>
<path d="M6616 1408 c3 -5 10 -6 15 -3 13 9 11 12 -6 12 -8 0 -12 -4 -9 -9z"/>
<path d="M6819 1413 c-1 -5 -1 -12 0 -17 1 -5 -5 -6 -14 -3 -8 4 -15 2 -15 -4
0 -6 -4 -8 -8 -5 -5 3 -9 -1 -9 -9 0 -8 4 -12 9 -9 12 8 10 -10 -3 -23 -8 -8
-7 -13 2 -18 8 -5 10 -4 5 3 -12 20 5 13 38 -15 17 -15 24 -24 16 -21 -20 7
-44 -11 -48 -37 -2 -11 -8 -25 -13 -32 -6 -7 -6 -13 -1 -17 13 -8 6 -56 -10
-72 -12 -12 -14 -11 -15 8 -2 18 0 20 7 8 7 -11 10 -8 10 13 0 16 -3 26 -8 23
-4 -2 -7 39 -7 92 0 124 1 122 -37 111 -22 -6 -36 -5 -47 4 -14 11 -14 10 -2
-5 9 -12 10 -18 2 -18 -6 0 -11 -7 -11 -15 0 -16 -12 -20 -24 -8 -10 11 -37
12 -30 2 3 -5 9 -7 14 -4 11 7 28 -17 25 -35 -12 -69 -12 -80 -2 -80 9 0 9 -2
1 -8 -6 -4 -10 -15 -8 -24 1 -10 -3 -21 -8 -25 -7 -4 -9 2 -6 15 4 12 2 22 -4
22 -5 0 -8 6 -5 13 2 6 -2 27 -10 45 -8 19 -9 32 -3 32 5 0 10 8 10 18 0 14
-2 15 -10 2 -9 -13 -10 -13 -11 0 -1 8 -1 19 0 23 1 5 -3 6 -8 3 -5 -3 -15 2
-22 11 -8 9 -9 14 -3 10 6 -3 11 0 11 8 0 10 -4 12 -12 5 -9 -7 -22 -7 -41 1
-16 6 -44 12 -61 13 -30 3 -32 1 -26 -22 5 -20 3 -23 -8 -17 -11 7 -12 6 -3
-6 13 -16 15 -51 2 -43 -4 3 -8 0 -8 -5 0 -6 4 -11 9 -11 10 0 9 -26 -2 -36
-10 -10 -9 -26 1 -20 10 6 9 -40 -1 -50 -3 -4 -3 -12 0 -18 12 -18 12 -38 3
-56 -6 -11 -5 -22 3 -30 9 -10 9 -11 0 -6 -7 4 -13 4 -14 -1 0 -4 -2 -16 -4
-25 -2 -10 1 -20 5 -23 5 -3 7 4 5 15 -2 11 0 20 6 20 10 0 7 -35 -4 -46 -11
-11 -8 -26 3 -19 6 4 10 3 9 -2 -1 -4 0 -12 1 -18 6 -27 4 -51 -5 -57 -6 -4
-2 -8 8 -8 21 0 18 -21 -3 -28 -8 -3 -10 0 -5 8 6 9 4 11 -4 5 -9 -5 -10 -10
-2 -18 7 -7 14 -7 24 1 10 9 19 8 35 -4 12 -8 27 -12 32 -9 6 3 10 0 10 -7 0
-8 5 -5 11 5 6 11 9 30 6 43 -2 14 -2 22 1 19 3 -2 11 0 19 6 16 14 17 -3 1
-19 -7 -7 -8 -12 -2 -12 6 0 16 11 22 24 10 23 9 24 -14 20 -22 -4 -24 -2 -21
23 2 16 0 36 -4 45 -5 10 -5 19 0 22 11 7 8 66 -4 87 -7 12 -6 12 7 1 9 -8 14
-20 11 -28 -3 -8 1 -14 8 -14 11 0 11 -3 -1 -10 -8 -5 -10 -10 -4 -10 6 0 11
-6 12 -12 1 -7 3 -24 4 -38 2 -14 8 -29 13 -33 6 -5 3 -7 -7 -3 -10 3 -20 0
-24 -7 -4 -7 -4 -9 1 -5 14 13 44 -11 40 -32 -2 -11 0 -20 5 -20 8 0 26 -39
22 -51 0 -3 9 -5 21 -4 12 0 30 -3 41 -8 13 -6 16 -6 12 2 -4 6 -1 11 6 11 20
1 50 48 52 80 0 16 4 26 8 24 5 -3 8 0 8 5 0 6 -4 11 -8 11 -14 0 -8 113 6
118 7 2 10 8 7 12 -3 5 -1 11 4 15 6 3 8 -4 5 -17 -11 -49 -11 -107 0 -101 6
4 5 -1 -3 -10 -8 -11 -9 -17 -3 -17 16 0 -11 -77 -33 -92 -6 -5 -5 -8 3 -8 8
0 16 9 19 20 3 11 9 20 13 20 9 0 7 -26 -2 -36 -4 -3 -2 -12 5 -18 16 -18 58
-7 85 21 l22 24 0 -23 c0 -13 -4 -29 -10 -36 -7 -9 -7 -9 2 -2 7 6 40 10 74
10 42 0 65 5 74 15 7 8 16 13 19 10 8 -4 9 -1 13 45 3 23 0 25 -38 26 -22 0
-48 3 -57 7 -9 3 -19 2 -21 -2 -9 -15 -55 0 -49 15 3 9 10 11 17 7 7 -5 5 -1
-4 7 -15 14 -20 74 -7 86 3 3 30 7 60 9 69 4 107 27 107 65 0 33 -8 36 -77 35
-50 -2 -63 8 -38 28 6 5 4 7 -5 4 -8 -2 -16 -9 -16 -15 -3 -22 -4 -22 -23 -6
-19 16 -18 55 1 51 21 -4 19 23 -3 31 -20 8 -21 9 -4 16 10 4 21 2 25 -5 6 -8
9 -7 13 2 4 9 6 7 7 -6 1 -11 2 -24 1 -28 -1 -5 3 -6 9 -2 6 4 8 14 5 24 -4
15 2 17 50 15 53 -2 54 -2 51 25 -9 66 -22 72 -151 75 -66 1 -89 4 -87 14 1 6
0 12 -3 12 -3 0 -6 -3 -6 -7z m101 -153 c0 -5 -7 -7 -15 -4 -8 4 -15 8 -15 10
0 2 7 4 15 4 8 0 15 -4 15 -10z m-366 -116 c3 -8 2 -12 -4 -9 -6 3 -10 10 -10
16 0 14 7 11 14 -7z m96 12 c0 -3 -4 -8 -10 -11 -5 -3 -10 -1 -10 4 0 6 5 11
10 11 6 0 10 -2 10 -4z m-12 -51 c-3 -3 -9 2 -12 12 -6 14 -5 15 5 6 7 -7 10
-15 7 -18z"/>
<path d="M5675 1399 c-4 -5 -12 -8 -18 -6 -7 2 -29 -7 -50 -20 -21 -13 -42
-21 -47 -18 -5 3 -12 0 -16 -6 -5 -8 -3 -9 6 -4 8 5 11 3 8 -6 -3 -8 -10 -13
-15 -12 -5 1 -10 -8 -10 -20 -1 -12 -6 -23 -11 -25 -6 -2 -8 -12 -5 -22 3 -11
0 -20 -6 -20 -8 0 -9 -6 -3 -17 4 -10 7 -28 6 -40 0 -13 3 -23 8 -23 5 0 7 -4
3 -9 -3 -6 2 -14 10 -18 19 -11 30 -56 12 -50 -7 2 -11 11 -9 21 2 9 -1 16 -6
16 -5 0 -15 14 -22 30 -8 19 -20 30 -32 30 -10 0 -17 4 -14 8 3 5 -4 16 -15
25 -10 9 -19 12 -19 7 0 -6 6 -13 13 -16 7 -2 13 -14 14 -24 1 -13 -2 -18 -9
-14 -7 4 -8 2 -4 -5 6 -9 11 -9 21 -1 16 13 35 5 35 -13 0 -9 -2 -9 -8 0 -5 8
-12 8 -26 -3 -11 -8 -14 -14 -7 -14 7 0 9 -5 5 -11 -4 -8 -9 -7 -15 2 -4 7 -5
17 -3 21 3 4 0 8 -6 8 -7 0 -10 7 -6 15 3 8 -1 21 -9 29 -8 7 -11 16 -8 20 4
3 0 6 -8 6 -10 1 -9 5 5 15 10 8 23 12 27 9 5 -3 9 0 9 5 0 14 -6 14 -30 1
-13 -7 -19 -6 -24 6 -3 9 -3 21 1 26 3 7 1 8 -5 4 -7 -4 -12 -2 -12 6 0 7 -8
32 -17 56 -16 42 -18 44 -51 38 -19 -3 -42 -12 -52 -21 -9 -8 -20 -12 -25 -8
-4 5 -6 3 -2 -2 3 -6 -3 -29 -13 -52 -10 -23 -15 -45 -12 -49 4 -4 -2 -4 -13
0 -15 5 -17 4 -9 -4 8 -8 7 -23 -4 -56 -13 -40 -16 -43 -28 -27 -13 16 -13 15
-5 -8 12 -34 3 -69 -18 -69 -11 0 -12 -3 -4 -8 10 -6 9 -14 -1 -34 -8 -15 -12
-29 -8 -32 3 -3 1 -6 -5 -6 -5 0 -9 -10 -8 -22 1 -13 -2 -33 -6 -46 -6 -15 -5
-21 1 -17 9 6 15 -17 10 -40 -1 -5 2 -7 6 -3 4 4 23 -2 42 -14 20 -12 32 -17
28 -10 -3 6 0 27 8 46 8 19 12 37 8 40 -3 3 1 6 9 7 77 5 88 4 98 -13 7 -12 7
-18 1 -18 -5 0 -10 -5 -10 -10 0 -6 11 -3 25 6 14 9 23 20 20 24 -3 5 5 10 17
12 17 2 26 -4 35 -26 7 -15 10 -32 7 -37 -3 -5 0 -9 6 -9 7 0 10 -6 7 -12 -3
-8 4 -13 18 -13 13 0 21 3 18 8 -2 4 0 7 6 7 17 0 50 41 44 56 -3 8 0 14 6 14
6 0 10 -3 9 -7 -4 -12 25 -48 42 -51 8 -2 18 -8 21 -14 4 -6 11 -8 17 -4 6 3
13 3 16 -2 3 -5 19 -7 37 -4 25 4 30 2 24 -9 -7 -11 -5 -11 9 1 10 8 27 15 39
17 11 2 26 8 32 13 7 5 14 8 17 5 7 -7 58 67 63 93 3 12 7 31 9 42 3 11 0 22
-6 26 -6 4 -5 10 3 15 10 6 11 9 2 9 -7 0 -13 6 -13 14 0 7 -7 19 -15 26 -8 7
-12 16 -9 21 3 5 2 9 -3 8 -18 -3 -34 1 -29 9 2 4 -3 8 -12 9 -27 2 -106 33
-123 49 -17 15 -15 54 3 54 5 0 7 4 4 9 -3 4 6 13 21 20 23 11 25 10 20 -9 -3
-11 -1 -20 3 -20 5 0 10 7 12 15 6 27 28 0 33 -41 4 -36 4 -38 -10 -20 -11 14
-12 22 -4 27 6 3 7 9 2 12 -5 3 -15 -3 -22 -15 -7 -11 -8 -17 -3 -14 9 6 27
-21 24 -36 -1 -4 9 -3 23 2 14 5 25 7 25 4 0 -4 7 -1 15 6 8 7 15 9 16 4 0 -5
4 1 10 14 5 13 13 21 18 18 4 -3 5 12 1 34 -4 22 -5 40 -2 40 3 0 -2 8 -11 18
-10 10 -14 22 -10 26 5 4 4 7 -2 6 -13 -3 -75 23 -75 31 0 3 -12 4 -26 1 -19
-3 -25 -1 -20 7 4 6 5 11 2 11 -3 0 -8 -5 -11 -11z m-361 -218 c8 -11 8 -13
-1 -8 -6 4 -14 3 -18 -3 -3 -5 1 -10 10 -10 9 0 14 -4 10 -9 -3 -5 0 -13 6
-16 5 -4 8 -13 5 -21 -3 -7 2 -20 10 -28 8 -9 15 -18 15 -22 1 -14 -25 -22
-41 -14 -11 6 -21 5 -28 -2 -9 -9 -12 -9 -12 0 0 6 -8 9 -17 6 -11 -4 -14 -3
-7 3 6 4 10 16 8 26 -1 9 3 17 10 17 7 0 11 12 10 31 -1 16 4 35 10 42 7 6 11
21 9 32 -2 12 -1 14 3 5 4 -8 12 -21 18 -29z m205 -63 c7 -11 7 -18 1 -18 -5
0 -10 -5 -10 -11 0 -5 5 -7 10 -4 6 3 13 -1 16 -9 3 -9 11 -13 18 -9 6 4 16 8
21 9 6 1 15 3 20 5 6 2 34 -5 63 -15 56 -19 85 -52 61 -67 -8 -5 -10 -9 -4 -9
16 0 -14 -24 -34 -27 -13 -2 -22 5 -26 17 -4 11 -12 20 -18 20 -7 0 -6 4 3 10
11 7 18 4 25 -11 11 -20 11 -20 29 0 16 17 17 23 6 36 -7 9 -15 13 -18 10 -3
-3 -12 1 -20 8 -11 8 -14 9 -9 0 5 -8 0 -11 -13 -10 -13 1 -19 6 -15 15 2 7 1
11 -4 7 -5 -3 -11 1 -14 7 -2 7 -4 1 -3 -14 0 -14 4 -24 7 -22 4 2 9 -3 13
-11 6 -17 -2 -19 -23 -6 -8 5 -11 16 -8 24 8 22 -1 27 -32 16 -31 -11 -57 -51
-54 -83 3 -18 2 -18 -7 3 -7 16 -7 28 0 36 8 10 8 15 -1 21 -8 4 -9 3 -5 -4 4
-7 2 -12 -4 -12 -7 0 -10 6 -7 13 2 6 11 11 20 11 9 -1 14 2 11 7 -3 5 0 9 5
9 6 0 11 5 11 10 0 6 -6 9 -12 8 -8 -2 -12 6 -10 22 2 19 0 22 -8 10 -8 -12
-10 -13 -10 -1 0 8 -3 11 -6 8 -4 -4 1 -18 11 -33 16 -25 16 -27 1 -21 -10 4
-15 3 -11 -3 3 -6 1 -10 -6 -10 -6 0 -9 8 -6 20 3 10 2 19 -2 18 -18 -2 -21 4
-7 18 9 8 14 19 11 24 -3 5 3 8 14 7 10 0 24 -9 30 -19z m71 -22 c0 -11 -19
-15 -25 -6 -3 5 1 10 9 10 9 0 16 -2 16 -4z m55 -66 c3 -5 1 -10 -4 -10 -6 0
-11 5 -11 10 0 6 2 10 4 10 3 0 8 -4 11 -10z m35 0 c4 7 10 8 13 3 3 -5 1 -15
-4 -23 -8 -13 -10 -13 -19 0 -5 8 -9 20 -9 25 0 6 3 4 6 -4 4 -10 7 -10 13 -1z
m-70 -31 c0 -5 4 -8 9 -5 12 8 36 -22 26 -32 -4 -4 -10 -1 -12 6 -3 6 -8 10
-12 8 -4 -3 -12 4 -19 15 -7 11 -8 19 -2 19 5 0 10 -5 10 -11z m-275 -67 c-8
-8 -25 10 -19 20 4 6 9 5 15 -3 4 -7 6 -15 4 -17z"/>
<path d="M5285 1133 c1 -15 -4 -35 -12 -45 -11 -12 -11 -18 -3 -23 14 -9 32
14 23 29 -4 5 0 7 9 4 19 -8 17 27 -4 48 -13 14 -15 12 -13 -13z m20 -2 c3 -5
2 -12 -3 -15 -5 -3 -9 1 -9 9 0 17 3 19 12 6z"/>
<path d="M5305 1070 c-3 -6 1 -7 9 -4 18 7 21 14 7 14 -6 0 -13 -4 -16 -10z"/>
<path d="M4250 1389 c0 -5 5 -7 10 -4 6 3 10 8 10 11 0 2 -4 4 -10 4 -5 0 -10
-5 -10 -11z"/>
<path d="M5550 1390 c0 -5 5 -10 11 -10 5 0 7 5 4 10 -3 6 -8 10 -11 10 -2 0
-4 -4 -4 -10z"/>
<path d="M6141 1384 c-13 -7 -40 -29 -60 -50 -20 -21 -30 -34 -23 -30 11 7 12
4 5 -10 -9 -20 -9 -303 0 -341 7 -28 46 -68 75 -78 13 -3 19 -11 16 -17 -4 -6
-3 -9 2 -5 5 3 36 6 69 8 33 1 65 6 72 11 7 6 17 7 23 3 6 -4 9 -2 8 3 -2 5 6
18 17 28 11 11 25 30 31 44 12 28 13 334 1 346 -4 4 -7 16 -7 26 0 11 -4 16
-10 13 -5 -3 -10 1 -10 9 0 9 -4 16 -10 16 -5 0 -19 9 -30 20 -11 11 -20 15
-20 10 0 -7 -6 -7 -19 -1 -24 13 -99 10 -130 -5z m115 -111 c18 -23 19 -67 2
-56 -7 4 -16 8 -20 8 -3 0 -10 3 -14 8 -7 6 9 11 29 8 4 0 7 4 7 10 0 6 -7 9
-15 6 -8 -4 -17 -2 -20 3 -3 4 1 10 7 13 7 2 1 4 -15 4 -23 0 -25 -1 -12 -11
21 -15 10 -47 -13 -39 -13 4 -14 3 -4 -5 8 -5 24 -8 38 -6 26 2 29 -3 14 -26
-5 -8 -10 -10 -10 -4 0 6 -11 12 -25 12 -23 0 -24 -2 -8 -13 17 -12 17 -14 1
-32 -14 -16 -15 -20 -2 -37 14 -20 14 -20 15 0 1 10 0 26 -1 33 -1 13 1 13 14
2 13 -11 14 -17 4 -28 -10 -12 -9 -18 7 -29 10 -8 22 -14 25 -14 13 0 9 -62
-5 -90 -11 -21 -23 -30 -41 -30 -14 0 -23 4 -19 10 3 5 12 7 19 4 8 -3 17 -1
21 5 4 7 -1 8 -12 4 -16 -6 -16 -5 -4 10 7 9 18 14 24 10 5 -3 7 -1 3 5 -3 5
-1 12 5 14 12 4 1 38 -13 38 -7 0 -6 -5 1 -13 6 -8 8 -17 4 -20 -10 -11 -20
-8 -20 6 0 6 -4 21 -8 32 -4 12 -4 15 2 8 6 -8 14 -9 23 -3 13 8 12 10 -2 11
-35 3 -39 4 -48 19 -5 8 -10 11 -10 7 0 -4 8 -20 17 -34 17 -26 17 -27 0 -20
-9 3 -17 2 -17 -3 0 -6 8 -10 18 -10 10 0 18 -8 19 -19 1 -13 -3 -18 -12 -15
-7 3 -16 1 -20 -5 -4 -7 1 -8 12 -4 15 5 16 3 6 -8 -20 -21 -41 5 -22 27 9 12
10 15 2 10 -10 -5 -12 9 -10 63 1 39 0 72 -3 74 -3 2 1 2 8 1 6 -2 12 1 12 6
0 6 -5 10 -11 10 -15 0 -4 101 12 111 18 11 49 2 65 -18z m14 -89 c0 -8 -4
-12 -10 -9 -5 3 -10 1 -10 -4 0 -6 6 -11 13 -11 8 0 7 -4 -3 -10 -12 -8 -12
-10 -1 -10 11 0 11 -3 0 -17 -10 -11 -10 -14 -1 -9 7 4 12 2 12 -7 0 -10 -7
-13 -20 -10 -22 6 -26 18 -9 28 7 5 6 12 -4 23 -8 10 -18 24 -22 32 -8 13 -6
13 8 1 14 -11 18 -11 23 3 8 20 24 21 24 0z"/>
<path d="M6190 1250 c0 -5 5 -10 11 -10 5 0 7 5 4 10 -3 6 -8 10 -11 10 -2 0
-4 -4 -4 -10z"/>
<path d="M6350 1393 c0 -6 8 -17 18 -24 16 -13 16 -13 2 6 -8 11 -16 22 -17
24 -2 2 -3 0 -3 -6z"/>
<path d="M5436 1377 c3 -10 9 -15 12 -12 3 3 0 11 -7 18 -10 9 -11 8 -5 -6z"/>
<path d="M6393 1375 c0 -8 4 -12 9 -9 5 3 6 10 3 15 -9 13 -12 11 -12 -6z"/>
<path d="M4550 1376 c0 -2 7 -7 16 -10 8 -3 12 -2 9 4 -6 10 -25 14 -25 6z"/>
<path d="M4590 1340 c-9 -6 -10 -10 -3 -10 6 0 15 5 18 10 8 12 4 12 -15 0z"/>
<path d="M6396 1337 c3 -10 9 -15 12 -12 3 3 0 11 -7 18 -10 9 -11 8 -5 -6z"/>
<path d="M4097 1329 c7 -7 15 -10 18 -7 3 3 -2 9 -12 12 -14 6 -15 5 -6 -5z"/>
<path d="M5390 1336 c0 -2 7 -7 16 -10 8 -3 12 -2 9 4 -6 10 -25 14 -25 6z"/>
<path d="M5189 1313 c-13 -16 -12 -17 4 -4 16 13 21 21 13 21 -2 0 -10 -8 -17
-17z"/>
<path d="M6380 1321 c0 -6 4 -13 10 -16 6 -3 7 1 4 9 -7 18 -14 21 -14 7z"/>
<path d="M5473 1306 c-3 -6 -3 -8 2 -4 4 4 13 3 20 -2 8 -7 12 -5 12 3 0 16
-25 18 -34 3z"/>
<path d="M6763 1298 c2 -24 3 -24 24 -9 12 9 23 20 23 25 0 5 -7 3 -16 -5 -13
-10 -17 -10 -24 1 -5 9 -8 5 -7 -12z"/>
<path d="M5457 1269 c4 -13 8 -18 11 -10 2 7 -1 18 -6 23 -8 8 -9 4 -5 -13z"/>
<path d="M6610 1275 c0 -8 2 -15 4 -15 2 0 6 7 10 15 3 8 1 15 -4 15 -6 0 -10
-7 -10 -15z"/>
<path d="M5130 1269 c0 -5 5 -7 10 -4 6 3 10 8 10 11 0 2 -4 4 -10 4 -5 0 -10
-5 -10 -11z"/>
<path d="M6393 1261 c1 -15 4 -17 14 -9 7 5 10 14 7 19 -10 16 -23 9 -21 -10z"/>
<path d="M6994 1272 c4 -3 14 -7 22 -8 9 -1 13 0 10 4 -4 3 -14 7 -22 8 -9 1
-13 0 -10 -4z"/>
<path d="M4600 1260 c-8 -5 -12 -12 -9 -15 4 -3 12 1 19 10 14 17 11 19 -10 5z"/>
<path d="M6775 1262 c-5 -4 -12 -16 -13 -27 -4 -23 0 -20 17 13 12 24 12 26
-4 14z"/>
<path d="M4750 1250 c-11 -7 -11 -10 -2 -10 7 0 10 -5 6 -11 -4 -8 0 -8 15 0
25 14 28 23 4 14 -11 -4 -14 -3 -9 5 9 14 6 15 -14 2z"/>
<path d="M5652 1243 c-7 -13 -7 -24 0 -34 8 -12 9 -11 5 2 -3 9 0 22 6 28 6 6
8 13 5 17 -4 3 -11 -3 -16 -13z"/>
<path d="M6989 1247 c6 -8 9 -16 6 -19 -3 -2 2 -5 10 -5 13 0 13 3 -2 19 -19
21 -31 25 -14 5z"/>
<path d="M5134 1239 c-3 -6 -2 -15 3 -20 5 -5 9 -1 9 11 0 23 -2 24 -12 9z"/>
<path d="M4813 1223 c0 -10 4 -10 16 -1 9 7 18 13 20 15 2 1 -5 1 -16 0 -11 0
-20 -7 -20 -14z"/>
<path d="M5454 1229 c-4 -7 -3 -9 4 -5 5 3 13 0 15 -6 4 -9 6 -10 6 -1 1 17
-16 25 -25 12z"/>
<path d="M6919 1223 c-13 -17 -13 -17 6 -3 11 8 22 16 24 17 2 2 0 3 -6 3 -6
0 -17 -8 -24 -17z"/>
<path d="M5672 1214 c1 -12 10 -21 22 -22 15 -1 17 1 7 7 -7 5 -17 15 -22 22
-6 10 -8 8 -7 -7z"/>
<path d="M6399 1222 c11 -8 11 -10 0 -15 -11 -4 -11 -6 1 -6 13 -1 13 -2 0
-12 -13 -9 -13 -10 0 -6 8 2 15 12 15 22 0 10 -7 20 -15 22 -12 4 -12 3 -1 -5z"/>
<path d="M5096 1212 c-2 -4 -1 -14 4 -22 7 -11 9 -9 7 8 -1 24 -3 26 -11 14z"/>
<path d="M5975 1210 c-3 -5 -1 -10 4 -10 6 0 11 5 11 10 0 6 -2 10 -4 10 -3 0
-8 -4 -11 -10z"/>
<path d="M5155 1190 c3 -5 8 -10 11 -10 2 0 4 5 4 10 0 6 -5 10 -11 10 -5 0
-7 -4 -4 -10z"/>
<path d="M5748 1173 c7 -3 16 -2 19 1 4 3 -2 6 -13 5 -11 0 -14 -3 -6 -6z"/>
<path d="M5880 1170 c-12 -7 -10 -9 7 -7 12 0 19 5 17 9 -6 10 -6 10 -24 -2z"/>
<path d="M6033 1159 c-2 -23 3 -25 10 -4 4 8 3 16 -1 19 -4 3 -9 -4 -9 -15z"/>
<path d="M3690 1160 c0 -6 -10 -8 -26 -4 -17 4 -29 2 -35 -7 -7 -11 -9 -11 -9
-1 0 10 -5 10 -21 1 -13 -7 -19 -7 -15 -1 4 6 -2 10 -14 9 -11 -1 -20 -6 -20
-11 0 -6 -4 -6 -11 1 -6 6 -25 7 -48 3 -21 -4 -46 -5 -56 -4 -10 1 -14 -1 -9
-6 14 -14 232 -20 238 -6 2 6 5 5 5 -4 1 -16 61 -24 61 -9 0 5 -3 8 -7 8 -26
-4 -35 2 -24 15 8 10 9 16 1 21 -5 3 -10 1 -10 -5z"/>
<path d="M6399 1162 c11 -8 11 -10 0 -15 -11 -4 -11 -6 -1 -6 7 -1 11 -5 8 -9
-8 -13 -16 -65 -9 -58 7 7 14 35 16 70 1 11 -5 21 -13 23 -12 4 -12 3 -1 -5z"/>
<path d="M7120 1160 c0 -5 5 -10 11 -10 5 0 7 5 4 10 -3 6 -8 10 -11 10 -2 0
-4 -4 -4 -10z"/>
<path d="M7083 1141 c2 -11 7 -24 12 -28 4 -5 5 -3 2 3 -5 8 9 10 47 7 32 -2
57 0 61 6 3 6 12 11 18 11 7 0 6 -4 -3 -10 -12 -8 -11 -10 6 -10 11 0 26 6 33
13 11 10 13 10 7 0 -4 -7 -2 -13 3 -13 6 0 11 6 11 13 0 8 3 8 8 1 4 -5 21 -9
37 -9 17 1 58 4 93 5 34 2 60 6 57 9 -17 16 -265 24 -284 8 -12 -9 -13 -9 -7
1 11 18 -20 15 -50 -4 -19 -13 -24 -14 -22 -4 2 8 -5 16 -15 18 -12 2 -16 -2
-14 -17z"/>
<path d="M5130 1130 c0 -5 5 -10 11 -10 5 0 7 5 4 10 -3 6 -8 10 -11 10 -2 0
-4 -4 -4 -10z"/>
<path d="M5078 1102 c-11 -15 -11 -15 2 -6 8 6 23 10 33 8 11 -1 16 0 13 4
-13 12 -36 10 -48 -6z"/>
<path d="M6024 1082 c0 -10 6 -19 13 -19 8 0 9 6 2 19 -5 10 -11 18 -12 18 -2
0 -3 -8 -3 -18z"/>
<path d="M5991 1077 c-8 -10 -7 -14 2 -14 8 0 14 6 14 14 0 7 -1 13 -2 13 -2
0 -8 -6 -14 -13z"/>
<path d="M3725 1070 c-3 -5 -1 -10 4 -10 6 0 11 5 11 10 0 6 -2 10 -4 10 -3 0
-8 -4 -11 -10z"/>
<path d="M7006 1068 c3 -5 10 -6 15 -3 13 9 11 12 -6 12 -8 0 -12 -4 -9 -9z"/>
<path d="M4790 1059 c0 -5 -6 -7 -12 -3 -7 4 -10 3 -5 -1 4 -5 16 -9 27 -10
15 -1 17 1 9 12 -14 16 -19 17 -19 2z"/>
<path d="M6950 1066 c0 -2 9 -6 20 -9 11 -3 18 -1 14 4 -5 9 -34 13 -34 5z"/>
<path d="M3709 1047 c6 -8 7 -18 3 -22 -4 -5 -1 -5 6 -1 10 6 10 11 1 22 -6 8
-14 14 -16 14 -3 0 0 -6 6 -13z"/>
<path d="M5100 1050 c-9 -6 -10 -10 -3 -10 6 0 15 5 18 10 8 12 4 12 -15 0z"/>
<path d="M6910 1050 c0 -5 7 -6 17 -3 12 5 14 3 8 -7 -5 -9 -4 -11 4 -6 6 4 9
12 6 17 -8 12 -35 12 -35 -1z"/>
<path d="M5915 1041 c-3 -5 -2 -12 3 -15 5 -3 9 1 9 9 0 17 -3 19 -12 6z"/>
<path d="M6004 1028 l-19 -23 23 19 c12 11 22 21 22 23 0 8 -8 2 -26 -19z"/>
<path d="M3645 1030 c-3 -6 1 -7 9 -4 18 7 21 14 7 14 -6 0 -13 -4 -16 -10z"/>
<path d="M6547 1034 c-3 -4 -2 -14 3 -24 5 -10 7 -20 5 -24 -3 -3 -2 -4 2 -1
11 9 12 35 2 35 -6 0 -7 5 -4 10 7 11 2 13 -8 4z"/>
<path d="M6956 1032 c-2 -4 -1 -14 4 -22 7 -11 9 -9 7 8 -1 24 -3 26 -11 14z"/>
<path d="M6910 1021 c0 -5 5 -13 10 -16 6 -3 10 -2 10 4 0 5 -4 13 -10 16 -5
3 -10 2 -10 -4z"/>
<path d="M4850 1009 c0 -5 5 -7 10 -4 6 3 10 8 10 11 0 2 -4 4 -10 4 -5 0 -10
-5 -10 -11z"/>
<path d="M6030 1011 c0 -6 4 -13 10 -16 6 -3 7 1 4 9 -7 18 -14 21 -14 7z"/>
<path d="M4757 996 c-4 -10 -3 -15 3 -11 6 3 10 1 10 -6 0 -7 3 -10 6 -6 3 3
2 13 -4 22 -8 16 -9 16 -15 1z"/>
<path d="M6940 1001 c0 -10 19 -25 25 -20 1 2 -3 10 -11 17 -8 7 -14 8 -14 3z"/>
<path d="M5905 990 c-3 -6 1 -7 9 -4 18 7 21 14 7 14 -6 0 -13 -4 -16 -10z"/>
<path d="M6390 992 c0 -4 10 -13 23 -21 22 -14 22 -14 3 8 -20 22 -26 25 -26
13z"/>
<path d="M3730 970 c0 -5 5 -10 11 -10 5 0 7 5 4 10 -3 6 -8 10 -11 10 -2 0
-4 -4 -4 -10z"/>
<path d="M5854 972 c4 -3 14 -7 22 -8 9 -1 13 0 10 4 -4 3 -14 7 -22 8 -9 1
-13 0 -10 -4z"/>
<path d="M5933 965 c0 -8 4 -12 9 -9 5 3 6 10 3 15 -9 13 -12 11 -12 -6z"/>
<path d="M6390 953 c0 -5 4 -14 9 -21 7 -11 9 -11 14 1 3 8 3 18 0 21 -9 8
-23 7 -23 -1z"/>
<path d="M3705 930 c-3 -6 1 -7 9 -4 18 7 21 14 7 14 -6 0 -13 -4 -16 -10z"/>
<path d="M3876 924 c-9 -24 -7 -31 10 -38 14 -5 15 -4 5 8 -6 7 -9 21 -5 30 3
9 4 16 1 16 -3 0 -8 -7 -11 -16z"/>
<path d="M4110 930 c0 -5 5 -10 11 -10 5 0 7 5 4 10 -3 6 -8 10 -11 10 -2 0
-4 -4 -4 -10z"/>
<path d="M5270 930 c0 -5 5 -10 10 -10 6 0 10 5 10 10 0 6 -4 10 -10 10 -5 0
-10 -4 -10 -10z"/>
<path d="M5370 933 c5 -2 8 -9 5 -13 -3 -5 -1 -11 4 -14 5 -4 8 2 7 11 -2 9
-8 18 -15 19 -6 1 -7 0 -1 -3z"/>
<path d="M4252 910 c0 -14 2 -19 5 -12 2 6 2 18 0 25 -3 6 -5 1 -5 -13z"/>
<path d="M6381 914 c0 -11 3 -14 6 -6 3 7 2 16 -1 19 -3 4 -6 -2 -5 -13z"/>
<path d="M3947 901 c-3 -13 0 -18 7 -15 7 3 13 11 13 19 0 22 -14 18 -20 -4z"/>
<path d="M4563 898 c-18 -38 -23 -59 -13 -53 6 3 10 15 10 26 0 13 4 18 13 13
6 -4 9 -4 5 1 -4 4 -3 14 3 22 6 7 7 13 2 13 -5 0 -14 -10 -20 -22z"/>
<path d="M5206 912 c-3 -5 1 -9 9 -9 8 0 15 4 15 9 0 4 -4 8 -9 8 -6 0 -12 -4
-15 -8z"/>
<path d="M5245 910 c3 -5 8 -10 11 -10 2 0 4 5 4 10 0 6 -5 10 -11 10 -5 0 -7
-4 -4 -10z"/>
<path d="M5340 910 c-9 -6 -10 -10 -3 -10 6 0 15 5 18 10 8 12 4 12 -15 0z"/>
<path d="M5814 906 c1 -8 5 -18 8 -22 4 -3 5 1 4 10 -1 8 -5 18 -8 22 -4 3 -5
-1 -4 -10z"/>
<path d="M6015 910 c-3 -5 -1 -10 4 -10 6 0 11 5 11 10 0 6 -2 10 -4 10 -3 0
-8 -4 -11 -10z"/>
<path d="M3910 901 c0 -6 4 -12 8 -15 5 -3 9 1 9 9 0 8 -4 15 -9 15 -4 0 -8
-4 -8 -9z"/>
<path d="M4106 893 c-6 -14 -5 -15 5 -6 7 7 10 15 7 18 -3 3 -9 -2 -12 -12z"/>
<path d="M5356 892 c-2 -4 -1 -14 4 -22 7 -11 9 -9 7 8 -1 24 -3 26 -11 14z"/>
<path d="M5515 890 c3 -5 2 -10 -3 -10 -6 0 -13 -8 -16 -17 -6 -15 -5 -15 13
1 18 16 20 36 5 36 -3 0 -2 -4 1 -10z"/>
<path d="M6359 898 c-5 -15 -4 -50 1 -53 3 -2 6 9 6 26 0 24 -3 37 -7 27z"/>
<path d="M6579 898 c-6 -18 -3 -46 3 -42 5 4 7 13 4 21 -5 11 -2 13 9 9 9 -3
13 -2 10 4 -5 9 -24 14 -26 8z"/>
<path d="M5381 874 c0 -11 3 -14 6 -6 3 7 2 16 -1 19 -3 4 -6 -2 -5 -13z"/>
<path d="M6381 874 c0 -11 3 -14 6 -6 3 7 2 16 -1 19 -3 4 -6 -2 -5 -13z"/>
<path d="M4506 872 c-3 -5 1 -9 9 -9 8 0 12 4 9 9 -3 4 -7 8 -9 8 -2 0 -6 -4
-9 -8z"/>
<path d="M5275 870 c3 -5 8 -10 11 -10 2 0 4 5 4 10 0 6 -5 10 -11 10 -5 0 -7
-4 -4 -10z"/>
<path d="M5910 872 c0 -5 7 -9 15 -9 8 0 12 4 9 9 -3 4 -9 8 -15 8 -5 0 -9 -4
-9 -8z"/>
<path d="M4306 853 c-6 -14 -5 -15 5 -6 7 7 10 15 7 18 -3 3 -9 -2 -12 -12z"/>
<path d="M5554 856 c1 -8 5 -18 8 -22 4 -3 5 1 4 10 -1 8 -5 18 -8 22 -4 3 -5
-1 -4 -10z"/>
<path d="M3980 856 c0 -2 8 -10 18 -17 15 -13 16 -12 3 4 -13 16 -21 21 -21
13z"/>
<path d="M4676 845 c-9 -26 -7 -32 5 -12 6 10 9 21 6 23 -2 3 -7 -2 -11 -11z"/>
<path d="M6396 852 c-2 -4 -1 -14 4 -22 7 -11 9 -9 7 8 -1 24 -3 26 -11 14z"/>
<path d="M6755 851 c-3 -5 0 -13 6 -17 7 -4 9 -3 5 4 -3 5 0 13 6 15 9 4 10 6
1 6 -6 1 -14 -3 -18 -8z"/>
<path d="M4269 833 c-13 -16 -12 -17 4 -4 9 7 17 15 17 17 0 8 -8 3 -21 -13z"/>
<path d="M4390 847 c0 -2 6 -10 14 -16 11 -9 16 -9 22 1 4 7 4 10 -1 6 -4 -4
-14 -3 -22 3 -7 6 -13 9 -13 6z"/>
<path d="M5590 847 c0 -2 6 -10 14 -16 11 -9 16 -9 22 1 4 7 4 10 -1 6 -4 -4
-14 -3 -22 3 -7 6 -13 9 -13 6z"/>
<path d="M6255 840 c-4 -6 -11 -8 -16 -5 -5 4 -9 1 -9 -4 0 -16 16 -13 30 4 7
8 10 15 7 15 -3 0 -9 -5 -12 -10z"/>
<path d="M6815 839 c-4 -6 -5 -12 -2 -15 2 -3 7 2 10 11 7 17 1 20 -8 4z"/>
<path d="M4446 828 c3 -5 10 -6 15 -3 13 9 11 12 -6 12 -8 0 -12 -4 -9 -9z"/>
<path d="M4630 826 c7 -7 13 -7 20 0 6 6 3 10 -10 10 -13 0 -16 -4 -10 -10z"/>
<path d="M4715 830 c3 -5 8 -10 11 -10 2 0 4 5 4 10 0 6 -5 10 -11 10 -5 0 -7
-4 -4 -10z"/>
<path d="M5430 828 c0 -4 4 -8 9 -8 6 0 12 4 15 8 3 5 -1 9 -9 9 -8 0 -15 -4
-15 -9z"/>
<path d="M6144 832 c4 -3 14 -7 22 -8 9 -1 13 0 10 4 -4 3 -14 7 -22 8 -9 1
-13 0 -10 -4z"/>
<path d="M6195 830 c3 -5 8 -10 11 -10 2 0 4 5 4 10 0 6 -5 10 -11 10 -5 0 -7
-4 -4 -10z"/>
<path d="M6556 828 c3 -5 10 -6 15 -3 13 9 11 12 -6 12 -8 0 -12 -4 -9 -9z"/>
<path d="M6590 829 c0 -5 5 -7 10 -4 6 3 10 8 10 11 0 2 -4 4 -10 4 -5 0 -10
-5 -10 -11z"/>
<path d="M6776 823 c-6 -14 -5 -15 5 -6 7 7 10 15 7 18 -3 3 -9 -2 -12 -12z"/>
<path d="M4495 821 c-3 -5 -2 -12 3 -15 5 -3 9 1 9 9 0 17 -3 19 -12 6z"/>
<path d="M6293 815 c0 -8 4 -12 9 -9 5 3 6 10 3 15 -9 13 -12 11 -12 -6z"/>
<path d="M4335 810 c3 -5 8 -10 11 -10 2 0 4 5 4 10 0 6 -5 10 -11 10 -5 0 -7
-4 -4 -10z"/>
<path d="M4370 809 c0 -5 5 -7 10 -4 6 3 10 8 10 11 0 2 -4 4 -10 4 -5 0 -10
-5 -10 -11z"/>
<path d="M5535 810 c3 -5 8 -10 11 -10 2 0 4 5 4 10 0 6 -5 10 -11 10 -5 0 -7
-4 -4 -10z"/>
<path d="M5570 809 c0 -5 5 -7 10 -4 6 3 10 8 10 11 0 2 -4 4 -10 4 -5 0 -10
-5 -10 -11z"/>
<path d="M6333 805 c0 -8 4 -12 9 -9 5 3 6 10 3 15 -9 13 -12 11 -12 -6z"/>
<path d="M4589 793 c-13 -16 -12 -17 4 -4 16 13 21 21 13 21 -2 0 -10 -8 -17
-17z"/>
<path d="M4633 795 c0 -8 4 -12 9 -9 5 3 6 10 3 15 -9 13 -12 11 -12 -6z"/>
<path d="M6506 788 c3 -4 9 -8 15 -8 5 0 9 4 9 8 0 5 -7 9 -15 9 -8 0 -12 -4
-9 -9z"/>
</g>
</svg>
